<svg xmlns="http://www.w3.org/2000/svg" viewBox="0 0 89.25 89.25"><defs><linearGradient id="b" x1="-3.04" x2="75.88" y1="130.13" y2="-11.44" gradientUnits="userSpaceOnUse"><stop offset="0" stop-color="#7cd16f"/><stop offset="1" stop-color="#25d366"/></linearGradient><clipPath id="a"><path d="M25.22 0h38.81C77.9 0 89.25 11.35 89.25 25.22v38.81c0 13.87-11.35 25.22-25.22 25.22H25.22C11.35 89.25 0 77.9 0 64.03V25.22C0 11.35 11.35 0 25.22 0" style="clip-rule:evenodd;fill:none;stroke-width:0"/></clipPath></defs><g style="clip-path:url(#a)"><path d="M0 0h89.25v89.25H0z" style="fill:url(#b);stroke-width:0"/></g><path d="M25.89 15.34h12.49c8.07 5.97-2.24 17.24-9.94 23.26h-2.56c-6.42 0-11.63-5.21-11.63-11.63s5.21-11.63 11.63-11.63" style="fill:#fff;fill-rule:evenodd;stroke-width:0"/><path d="M34.39 70.23a11.59 11.59 0 0 1-8.5 3.69c-6.42 0-11.63-5.21-11.63-11.63 0-3.35 1.42-6.37 3.69-8.5s14.1-14.11 14.1-14.11c5.14-5.14 19.13-16.39 10.45-24.34h16.6c5.13 0 9.52 3.37 11.05 8.01 2.31 6.99-1.54 12.39-5.94 17.04l-.05.06-.05.06-.04.05h-.01v.02l-.1.1-.05.06-.05.06h-.01l-.04.06-.05.06-.11.11-.03.03-.02.02-.05.06-.05.05-.05.06-.05.05-.11.11-.05.05-.05.05-.02.02-.03.03-.05.05-.05.05-.05.05-.04.04-.05.06-.05.05-.05.05-.05.05h-.01l-.04.05-.05.05-.05.05-.05.05-.03.03c-.54.54-1.08 1.08-1.61 1.6l-26.4 26.4ZM63.36 50.64c6.42 0 11.63 5.21 11.63 11.63S69.78 73.9 63.36 73.9s-11.63-5.21-11.63-11.63 5.21-11.63 11.63-11.63" style="fill:#fff;fill-rule:evenodd;stroke-width:0"/></svg>
